<?xml version="1.0" standalone="no"?>
<!DOCTYPE svg PUBLIC "-//W3C//DTD SVG 20010904//EN"
 "http://www.w3.org/TR/2001/REC-SVG-20010904/DTD/svg10.dtd">
<svg version="1.0" xmlns="http://www.w3.org/2000/svg"
 width="1673.000000pt" height="507.000000pt" viewBox="0 0 1673.000000 507.000000"
 preserveAspectRatio="xMidYMid meet">

<g transform="translate(0.000000,507.000000) scale(0.100000,-0.100000)"
class="orl-svg-primary-dark-20-fill" stroke="none">
<path d="M2443 4582 c-100 -36 -175 -108 -208 -203 -18 -49 -20 -138 -4 -172
23 -51 101 -72 157 -43 32 17 48 44 61 106 22 104 132 133 188 51 17 -24 18
-83 20 -876 2 -644 6 -856 15 -873 42 -80 183 -63 207 25 7 25 11 252 11 654
l0 616 24 26 c65 71 166 33 181 -67 17 -109 125 -153 197 -81 33 33 39 66 27
142 -29 170 -176 282 -355 271 l-74 -5 0 57 c0 76 -18 166 -41 213 -70 137
-260 211 -406 159z"/>
<path d="M5560 4159 c-73 -14 -171 -68 -227 -125 -144 -148 -183 -403 -90
-599 42 -87 92 -146 169 -196 85 -54 164 -73 290 -67 119 6 195 31 258 85 l40
34 -41 54 -41 54 -50 -35 c-177 -121 -404 -57 -494 139 -26 56 -29 72 -29 167
0 93 3 112 26 161 37 79 90 133 166 171 88 43 179 44 270 4 34 -16 70 -37 79
-47 25 -28 35 -24 76 33 l38 52 -21 22 c-75 80 -268 123 -419 93z"/>
<path d="M8981 4154 c-220 -59 -346 -240 -345 -494 1 -161 47 -274 153 -373
87 -81 185 -117 322 -117 147 0 252 43 347 144 174 184 174 520 0 711 -109
120 -310 174 -477 129z m184 -125 c72 -13 104 -29 157 -77 87 -79 123 -174
116 -311 -7 -146 -68 -245 -185 -303 -57 -28 -77 -33 -143 -33 -68 0 -85 4
-146 35 -85 43 -135 106 -165 203 -67 216 50 448 244 487 59 11 57 11 122 -1z"/>
<path d="M6190 3670 l0 -480 70 0 70 0 0 480 0 480 -70 0 -70 0 0 -480z"/>
<path d="M6520 4085 l0 -65 155 0 155 0 0 -415 0 -415 70 0 70 0 0 415 0 415
155 0 155 0 0 65 0 65 -380 0 -380 0 0 -65z"/>
<path d="M7360 4141 c0 -5 77 -138 170 -295 l170 -287 0 -185 0 -184 70 0 70
0 0 178 0 177 171 288 c93 159 173 295 176 303 4 11 -9 14 -75 14 l-80 0 -115
-202 c-63 -112 -121 -215 -128 -230 -12 -27 -12 -27 -63 65 -29 50 -88 154
-131 229 l-80 138 -77 0 c-43 0 -78 -4 -78 -9z"/>
<path d="M9810 3670 l0 -480 70 0 70 0 0 210 0 210 230 0 230 0 0 65 0 65
-230 0 -230 0 0 140 0 140 270 0 270 0 0 65 0 65 -340 0 -340 0 0 -480z"/>
<path d="M2418 3154 c-54 -8 -157 -29 -230 -48 -681 -172 -1177 -629 -1284
-1183 -19 -96 -24 -292 -11 -385 l8 -58 341 0 340 0 -6 23 c-4 12 -10 81 -13
152 -21 517 291 994 778 1185 44 18 141 44 232 64 l27 6 0 130 0 130 -42 -1
c-24 -1 -87 -7 -140 -15z"/>
<path d="M2940 3041 c0 -146 -10 -131 95 -151 77 -16 181 -53 270 -97 344
-172 593 -507 660 -887 16 -93 19 -298 6 -378 l-8 -48 338 0 338 0 8 38 c15
72 9 331 -11 422 -135 629 -753 1113 -1559 1220 -43 5 -92 10 -108 10 l-29 0
0 -129z"/>
<path d="M5732 2930 c-237 -43 -440 -204 -527 -418 -46 -114 -59 -180 -59
-317 0 -158 16 -232 81 -365 38 -79 59 -108 132 -180 146 -145 291 -204 506
-204 218 0 371 60 510 199 92 92 145 176 180 287 100 314 13 651 -217 844
-121 101 -266 154 -438 159 -63 2 -139 0 -168 -5z m281 -304 c84 -35 135 -73
183 -138 106 -145 122 -364 38 -530 -122 -241 -439 -302 -634 -121 -248 229
-172 684 132 793 79 29 206 27 281 -4z"/>
<path d="M14855 2926 c-183 -42 -325 -135 -426 -279 -165 -236 -184 -566 -46
-832 60 -117 183 -238 297 -293 189 -92 406 -103 599 -33 292 107 461 365 461
707 0 146 -21 240 -81 364 -34 70 -58 101 -133 175 -98 97 -181 146 -301 180
-82 23 -292 29 -370 11z m304 -297 c113 -39 206 -138 252 -270 31 -89 32 -248
0 -333 -59 -163 -171 -261 -330 -288 -302 -52 -544 249 -466 580 61 258 300
395 544 311z"/>
<path d="M6850 2196 l0 -716 150 0 150 0 0 235 0 235 128 0 128 0 159 -235
160 -235 167 0 c155 0 168 1 168 18 0 10 -67 113 -149 229 -82 117 -157 223
-166 237 -16 25 -16 25 27 47 155 78 238 222 238 414 0 234 -114 384 -350 461
-48 15 -103 18 -432 22 l-378 3 0 -715z m715 433 c62 -21 120 -85 135 -149 25
-105 -21 -204 -117 -252 -44 -21 -63 -23 -240 -26 l-193 -4 0 227 0 227 188
-5 c122 -3 201 -9 227 -18z"/>
<path d="M8390 2195 l0 -715 485 0 485 0 0 130 0 130 -335 0 -335 0 0 585 0
585 -150 0 -150 0 0 -715z"/>
<path d="M10126 2901 c-4 -6 -510 -1278 -557 -1399 l-9 -22 161 2 162 3 47
130 47 130 305 3 304 2 49 -135 49 -135 159 0 c147 0 159 1 154 18 -2 9 -106
271 -230 582 -123 311 -248 625 -276 698 l-53 132 -153 0 c-85 0 -156 -4 -159
-9z m360 -888 l6 -23 -212 0 c-166 0 -211 3 -207 13 2 6 45 122 95 257 50 135
96 259 102 275 11 29 16 17 111 -235 55 -146 102 -275 105 -287z"/>
<path d="M11210 2195 l0 -715 150 0 150 0 2 449 3 450 365 -449 365 -449 118
-1 117 0 0 715 0 715 -150 0 -150 0 -2 -446 -3 -445 -365 445 -365 445 -117 0
-118 1 0 -715z"/>
<path d="M12810 2195 l0 -716 358 3 c341 4 360 5 427 27 126 41 204 88 290
175 137 138 195 289 195 505 0 358 -184 604 -520 696 -55 15 -119 19 -407 22
l-343 5 0 -717z m615 440 c195 -42 317 -170 346 -366 22 -152 -24 -304 -123
-402 -98 -97 -189 -127 -395 -127 l-143 0 0 455 0 455 123 0 c69 0 152 -7 192
-15z"/>
<path d="M2504 2463 c-32 -6 -64 -46 -71 -87 l-6 -36 342 0 341 0 0 30 c0 19
-11 42 -29 62 l-29 33 -264 1 c-144 1 -273 0 -284 -3z"/>
<path d="M2169 2252 c-160 -108 -259 -230 -308 -381 -38 -115 -42 -111 109
-111 l129 0 6 38 c28 176 90 312 191 421 l66 71 -69 0 c-62 0 -73 -3 -124 -38z"/>
<path d="M2363 2238 c-62 -64 -114 -145 -147 -229 -28 -71 -56 -180 -56 -221
l0 -28 129 0 130 0 6 58 c18 164 51 300 96 401 16 35 29 65 29 67 0 2 -31 4
-68 4 l-68 0 -51 -52z"/>
<path d="M2576 2235 c-48 -101 -96 -318 -96 -432 l0 -43 130 0 130 0 0 265 0
265 -69 0 -69 0 -26 -55z"/>
<path d="M2800 2025 l0 -265 131 0 132 0 -6 90 c-9 118 -38 250 -79 352 l-33
83 -72 3 -73 3 0 -266z"/>
<path d="M3000 2284 c0 -3 15 -48 34 -98 36 -96 70 -244 81 -358 l7 -68 129 0
129 0 0 33 c0 58 -39 189 -81 274 -26 53 -64 108 -106 153 l-65 70 -64 0 c-35
0 -64 -3 -64 -6z"/>
<path d="M3236 2228 c33 -35 74 -86 92 -114 42 -66 86 -190 102 -281 l12 -73
129 0 129 0 0 28 c-1 41 -41 151 -80 216 -46 78 -149 182 -235 239 -66 45 -73
47 -139 47 l-69 0 59 -62z"/>
<path d="M1773 1628 c3 -46 9 -98 13 -116 l7 -32 980 2 981 3 7 40 c3 22 9 73
13 113 l6 72 -1006 0 -1007 0 6 -82z"/>
<path d="M5348 1116 c-79 -28 -130 -81 -154 -162 -54 -181 61 -355 236 -353
107 0 182 46 226 135 55 112 26 273 -61 340 -66 50 -172 67 -247 40z m180 -93
c42 -31 73 -95 74 -152 0 -61 -8 -87 -39 -129 -32 -43 -72 -62 -128 -62 -178
0 -238 244 -85 348 29 20 44 23 93 20 37 -3 67 -12 85 -25z"/>
<path d="M5770 866 l0 -256 40 0 40 0 0 79 0 79 103 4 c115 5 152 18 189 70
32 46 33 163 2 205 -43 57 -75 67 -231 72 l-143 3 0 -256z m242 174 c65 -18
95 -82 67 -143 -17 -38 -49 -50 -141 -55 l-88 -4 0 106 0 106 63 0 c34 0 79
-5 99 -10z"/>
<path d="M6250 865 l0 -255 180 0 180 0 0 35 0 35 -140 0 -140 0 0 75 0 75
120 0 120 0 0 35 0 35 -120 0 -120 0 0 75 0 75 140 0 140 0 0 35 0 35 -180 0
-180 0 0 -255z"/>
<path d="M6700 865 l0 -255 40 0 40 0 2 177 3 176 143 -176 c127 -157 146
-177 172 -177 l30 0 0 255 0 255 -40 0 -40 0 -2 -178 -3 -179 -144 179 c-126
156 -147 178 -172 178 l-29 0 0 -255z"/>
<path d="M7430 865 l0 -255 108 0 c127 0 197 17 246 61 55 48 76 102 76 196 0
96 -24 151 -88 200 -51 39 -115 53 -242 53 l-100 0 0 -255z m256 162 c62 -33
94 -87 94 -162 0 -114 -63 -172 -196 -182 l-74 -6 0 188 0 188 74 -6 c40 -3
87 -12 102 -20z"/>
<path d="M8085 1111 c-11 -19 -205 -483 -205 -492 0 -5 18 -9 39 -9 38 0 40 2
62 55 l23 55 120 0 121 0 21 -53 c21 -50 23 -52 63 -55 22 -2 41 0 41 5 0 4
-47 118 -104 253 l-103 245 -36 3 c-19 2 -38 -2 -42 -7z m84 -207 c22 -55 41
-103 41 -107 0 -4 -40 -7 -89 -7 l-89 0 46 110 c25 61 46 109 47 108 2 -2 21
-48 44 -104z"/>
<path d="M8330 1085 l0 -35 80 0 80 0 0 -220 0 -220 40 0 40 0 0 220 0 220 80
0 80 0 0 35 0 35 -200 0 -200 0 0 -35z"/>
<path d="M8802 873 c-56 -137 -102 -251 -102 -255 0 -5 17 -8 39 -8 38 0 39 2
61 55 l22 55 122 0 121 0 20 -52 c20 -51 22 -53 63 -56 23 -2 42 0 42 5 0 4
-47 118 -104 253 l-103 245 -39 3 -39 2 -103 -247z m188 28 c22 -57 39 -105
37 -108 -3 -2 -42 -3 -89 -1 l-84 3 44 108 c25 59 46 106 48 105 1 -2 21 -50
44 -107z"/>
</g>
</svg>
