<?xml version="1.0" encoding="UTF-8" standalone="no"?>
<!-- Created with Inkscape (http://www.inkscape.org/) -->

<svg
   xmlns:dc="http://purl.org/dc/elements/1.1/"
   xmlns:cc="http://creativecommons.org/ns#"
   xmlns:rdf="http://www.w3.org/1999/02/22-rdf-syntax-ns#"
   xmlns:svg="http://www.w3.org/2000/svg"
   xmlns="http://www.w3.org/2000/svg"
   xmlns:sodipodi="http://sodipodi.sourceforge.net/DTD/sodipodi-0.dtd"
   xmlns:inkscape="http://www.inkscape.org/namespaces/inkscape"
   version="1.1"
   id="svg4554"
   width="42.347328"
   height="35.999992"
   viewBox="0 0 42.347329 35.999992"
   sodipodi:docname="linkedin-black-1.svg"
   inkscape:version="0.92.4 (5da689c313, 2019-01-14)">
  <metadata
     id="metadata4560">
    <rdf:RDF>
      <cc:Work
         rdf:about="">
        <dc:format>image/svg+xml</dc:format>
        <dc:type
           rdf:resource="http://purl.org/dc/dcmitype/StillImage" />
        <dc:title></dc:title>
      </cc:Work>
    </rdf:RDF>
  </metadata>
  <defs
     id="defs4558" />
  <sodipodi:namedview
     pagecolor="#ffffff"
     bordercolor="#666666"
     borderopacity="1"
     objecttolerance="10"
     gridtolerance="10"
     guidetolerance="10"
     inkscape:pageopacity="0"
     inkscape:pageshadow="2"
     inkscape:window-width="1600"
     inkscape:window-height="837"
     id="namedview4556"
     showgrid="false"
     fit-margin-top="0"
     fit-margin-left="0"
     fit-margin-right="0"
     fit-margin-bottom="0"
     inkscape:zoom="3.8657407"
     inkscape:cx="4.2448121"
     inkscape:cy="5.4462689"
     inkscape:window-x="-8"
     inkscape:window-y="-8"
     inkscape:window-maximized="1"
     inkscape:current-layer="svg4554"
     inkscape:pagecheckerboard="true" />
  <path
     inkscape:connector-curvature="0"
     id="path4566"
     d="m 39.255208,35.92616 c -0.69578,-0.22721 -1.242239,-0.71128 -1.549956,-1.37298 -0.145816,-0.31356 -0.175037,-0.47199 -0.174537,-0.94623 8.38e-4,-0.76017 0.217832,-1.25651 0.774943,-1.7723 0.498138,-0.46119 0.954961,-0.64016 1.634017,-0.64016 0.96464,0 1.753551,0.50159 2.193055,1.39436 0.195004,0.3961 0.218814,0.50547 0.214071,0.98319 -0.01351,1.36048 -0.967668,2.36891 -2.294186,2.42469 -0.314171,0.0132 -0.625144,-0.0143 -0.797407,-0.0706 z m 1.605725,-0.3593 c 0.445026,-0.19493 0.864589,-0.61409 1.078009,-1.07697 0.114137,-0.24754 0.14441,-0.43995 0.14419,-0.91644 -2.09e-4,-0.52258 -0.024,-0.64822 -0.17795,-0.94087 -0.217049,-0.41262 -0.695621,-0.86539 -1.116075,-1.05591 -0.47318,-0.21441 -1.263529,-0.20119 -1.754106,0.0293 -0.442915,0.20814 -0.821531,0.57514 -1.061806,1.02925 -0.155711,0.29429 -0.177304,0.41254 -0.177425,0.97168 -1.34e-4,0.53526 0.0243,0.68246 0.153361,0.92445 0.592245,1.11054 1.777879,1.53216 2.911802,1.03546 z m -1.758919,-1.95991 v -1.27324 h 0.698494 c 0.649284,0 0.712672,0.0119 0.899747,0.16934 0.407482,0.34288 0.309371,0.94338 -0.188828,1.15574 l -0.271429,0.1157 0.370357,0.55285 c 0.361411,0.5395 0.366246,0.55286 0.200153,0.55286 -0.140099,0 -0.235211,-0.10076 -0.53767,-0.56961 -0.345786,-0.53601 -0.38127,-0.56961 -0.601608,-0.56961 h -0.234151 v 0.56961 c 0,0.56291 -0.0019,0.56961 -0.167533,0.56961 h -0.167532 z m 1.325347,-0.23834 c 0.110706,-0.0775 0.148937,-0.17155 0.148937,-0.36621 0,-0.3329 -0.118222,-0.40064 -0.69923,-0.40064 h -0.439989 v 0.43559 0.43558 h 0.420673 c 0.272284,0 0.473209,-0.0368 0.569609,-0.10432 z M 1.7928373,35.65379 C 1.4151676,35.53543 0.891651,35.19393 0.6285988,34.89433 0.51157778,34.76105 0.32227081,34.45456 0.20791665,34.21325 L 0,33.77449 V 17.85545 1.93642 L 0.25279557,1.42492 C 0.5404614,0.84287 0.9116256,0.47377 1.4996714,0.18499 L 1.8763606,0 H 17.892438 33.908516 l 0.37669,0.18499 c 0.588044,0.28878 0.95921,0.65788 1.246875,1.23993 l 0.252796,0.5115 v 15.92251 15.92251 l -0.252796,0.51149 c -0.287665,0.58206 -0.658831,0.95116 -1.246875,1.23994 l -0.37669,0.18499 -15.915558,0.0126 C 4.9056999,35.74076 2.0268307,35.72746 1.7928373,35.65386 Z M 10.621541,21.94671 V 13.36907 H 7.941026 5.2605109 v 8.57764 8.57765 h 2.6805151 2.680515 z m 8.662472,3.60195 c 0.02768,-5.53122 0.02176,-5.45309 0.484532,-6.39357 0.302654,-0.61508 0.795974,-1.07909 1.38478,-1.3025 0.366464,-0.13905 0.540101,-0.16119 1.264001,-0.16119 0.815695,0 0.851878,0.006 1.292881,0.22341 0.744706,0.3667 1.14928,1.00923 1.357263,2.15554 0.07143,0.39369 0.0917,1.58084 0.09353,5.47831 l 0.0023,4.9757 h 2.684492 2.684492 l -0.02681,-5.88038 c -0.02592,-5.6841 -0.03164,-5.90576 -0.171413,-6.64083 -0.316994,-1.66709 -0.765507,-2.63615 -1.61909,-3.49824 -0.944148,-0.95356 -2.021498,-1.39304 -3.783809,-1.5435 -1.812258,-0.15473 -3.111803,0.16802 -4.358255,1.08239 -0.429961,0.31541 -1.038226,0.95653 -1.301742,1.37205 l -0.206048,0.32491 v -1.18585 -1.18584 h -2.579996 -2.579996 v 8.57764 8.57765 h 2.676969 2.676969 z M 8.8731109,10.89666 C 11.082108,10.20914 11.76197,7.40699 10.118516,5.76353 9.499702,5.14472 8.8163589,4.86171 7.941026,4.86171 c -1.7473752,0 -3.0825924,1.33111 -3.0825924,3.07312 0,1.37979 0.8393849,2.54657 2.1284597,2.95866 0.5221644,0.16692 1.3555788,0.16832 1.8862176,0.003 z"
     style="fill:#000000;stroke-width:0.06701288;opacity:1" />
</svg>
