<?xml version="1.0" encoding="UTF-8" standalone="no"?>
<svg
   xmlns:dc="http://purl.org/dc/elements/1.1/"
   xmlns:cc="http://creativecommons.org/ns#"
   xmlns:rdf="http://www.w3.org/1999/02/22-rdf-syntax-ns#"
   xmlns:svg="http://www.w3.org/2000/svg"
   xmlns="http://www.w3.org/2000/svg"
   xmlns:sodipodi="http://sodipodi.sourceforge.net/DTD/sodipodi-0.dtd"
   xmlns:inkscape="http://www.inkscape.org/namespaces/inkscape"
   version="1.0"
   width="18pt"
   height="14.891792pt"
   viewBox="0 0 18 14.891792"
   preserveAspectRatio="xMidYMid meet"
   id="svg68"
   sodipodi:docname="orlando-fountain.svg"
   inkscape:version="0.92.3 (2405546, 2018-03-11)">
  <metadata
     id="metadata74">
    <rdf:RDF>
      <cc:Work
         rdf:about="">
        <dc:format>image/svg+xml</dc:format>
        <dc:type
           rdf:resource="http://purl.org/dc/dcmitype/StillImage" />
      </cc:Work>
    </rdf:RDF>
  </metadata>
  <defs
     id="defs72" />
  <sodipodi:namedview
     pagecolor="#ffffff"
     bordercolor="#666666"
     borderopacity="1"
     objecttolerance="10"
     gridtolerance="10"
     guidetolerance="10"
     inkscape:pageopacity="0"
     inkscape:pageshadow="2"
     inkscape:window-width="1600"
     inkscape:window-height="837"
     id="namedview70"
     showgrid="false"
     inkscape:zoom="4.0741183"
     inkscape:cx="-23.534016"
     inkscape:cy="-24.357163"
     inkscape:window-x="-8"
     inkscape:window-y="-8"
     inkscape:window-maximized="1"
     inkscape:current-layer="g66" />
  <g
     transform="matrix(0.1,0,0,-0.1,-263.82841,313.10835)"
     id="g66"
     style="fill:#ffffff"
     style="stroke:none">
    <g
       id="g892"
       transform="matrix(0.04775005,0,0,0.04775005,2595.9891,2911.4955)">
      <path
         id="path2"
         d="m 2443,4582 c -100,-36 -175,-108 -208,-203 -18,-49 -20,-138 -4,-172 23,-51 101,-72 157,-43 32,17 48,44 61,106 22,104 132,133 188,51 17,-24 18,-83 20,-876 2,-644 6,-856 15,-873 42,-80 183,-63 207,25 7,25 11,252 11,654 v 616 l 24,26 c 65,71 166,33 181,-67 17,-109 125,-153 197,-81 33,33 39,66 27,142 -29,170 -176,282 -355,271 l -74,-5 v 57 c 0,76 -18,166 -41,213 -70,137 -260,211 -406,159 z"
         inkscape:connector-curvature="0" />
      <path
         id="path16"
         d="m 2418,3154 c -54,-8 -157,-29 -230,-48 C 1507,2934 1011,2477 904,1923 885,1827 880,1631 893,1538 l 8,-58 h 341 340 l -6,23 c -4,12 -10,81 -13,152 -21,517 291,994 778,1185 44,18 141,44 232,64 l 27,6 v 130 130 l -42,-1 c -24,-1 -87,-7 -140,-15 z"
         inkscape:connector-curvature="0" />
      <path
         id="path18"
         d="m 2940,3041 c 0,-146 -10,-131 95,-151 77,-16 181,-53 270,-97 344,-172 593,-507 660,-887 16,-93 19,-298 6,-378 l -8,-48 h 338 338 l 8,38 c 15,72 9,331 -11,422 -135,629 -753,1113 -1559,1220 -43,5 -92,10 -108,10 h -29 z"
         inkscape:connector-curvature="0" />
      <path
         id="path34"
         d="m 2504,2463 c -32,-6 -64,-46 -71,-87 l -6,-36 h 342 341 v 30 c 0,19 -11,42 -29,62 l -29,33 -264,1 c -144,1 -273,0 -284,-3 z"
         inkscape:connector-curvature="0" />
      <path
         id="path36"
         d="m 2169,2252 c -160,-108 -259,-230 -308,-381 -38,-115 -42,-111 109,-111 h 129 l 6,38 c 28,176 90,312 191,421 l 66,71 h -69 c -62,0 -73,-3 -124,-38 z"
         inkscape:connector-curvature="0" />
      <path
         id="path38"
         d="m 2363,2238 c -62,-64 -114,-145 -147,-229 -28,-71 -56,-180 -56,-221 v -28 h 129 130 l 6,58 c 18,164 51,300 96,401 16,35 29,65 29,67 0,2 -31,4 -68,4 h -68 z"
         inkscape:connector-curvature="0" />
      <path
         id="path40"
         d="m 2576,2235 c -48,-101 -96,-318 -96,-432 v -43 h 130 130 v 265 265 h -69 -69 z"
         inkscape:connector-curvature="0" />
      <path
         id="path42"
         d="m 2800,2025 v -265 h 131 132 l -6,90 c -9,118 -38,250 -79,352 l -33,83 -72,3 -73,3 z"
         inkscape:connector-curvature="0" />
      <path
         id="path44"
         d="m 3000,2284 c 0,-3 15,-48 34,-98 36,-96 70,-244 81,-358 l 7,-68 h 129 129 v 33 c 0,58 -39,189 -81,274 -26,53 -64,108 -106,153 l -65,70 h -64 c -35,0 -64,-3 -64,-6 z"
         inkscape:connector-curvature="0" />
      <path
         id="path46"
         d="m 3236,2228 c 33,-35 74,-86 92,-114 42,-66 86,-190 102,-281 l 12,-73 h 129 129 v 28 c -1,41 -41,151 -80,216 -46,78 -149,182 -235,239 -66,45 -73,47 -139,47 h -69 z"
         inkscape:connector-curvature="0" />
      <path
         id="path48"
         d="m 1773,1628 c 3,-46 9,-98 13,-116 l 7,-32 980,2 981,3 7,40 c 3,22 9,73 13,113 l 6,72 H 2774 1767 Z"
         inkscape:connector-curvature="0" />
    </g>
  </g>
</svg>
