<svg version="1.0" xmlns="http://www.w3.org/2000/svg"
 width="128" height="128"
 viewBox="0 0 500 500"
 preserveAspectRatio="xMidYMid meet">
<g transform="translate(0,525) scale(.1,-0.1)"
fill="#FFFFFF" stroke="none">
<path d="M2443 4582 c-100 -36 -175 -108 -208 -203 -18 -49 -20 -138 -4 -172
23 -51 101 -72 157 -43 32 17 48 44 61 106 22 104 132 133 188 51 17 -24 18
-83 20 -876 2 -644 6 -856 15 -873 42 -80 183 -63 207 25 7 25 11 252 11 654
l0 616 24 26 c65 71 166 33 181 -67 17 -109 125 -153 197 -81 33 33 39 66 27
142 -29 170 -176 282 -355 271 l-74 -5 0 57 c0 76 -18 166 -41 213 -70 137
-260 211 -406 159z"/>
<path d="M2418 3154 c-54 -8 -157 -29 -230 -48 -681 -172 -1177 -629 -1284
-1183 -19 -96 -24 -292 -11 -385 l8 -58 341 0 340 0 -6 23 c-4 12 -10 81 -13
152 -21 517 291 994 778 1185 44 18 141 44 232 64 l27 6 0 130 0 130 -42 -1
c-24 -1 -87 -7 -140 -15z"/>
<path d="M2940 3041 c0 -146 -10 -131 95 -151 77 -16 181 -53 270 -97 344
-172 593 -507 660 -887 16 -93 19 -298 6 -378 l-8 -48 338 0 338 0 8 38 c15
72 9 331 -11 422 -135 629 -753 1113 -1559 1220 -43 5 -92 10 -108 10 l-29 0
0 -129z"/>
<path d="M2504 2463 c-32 -6 -64 -46 -71 -87 l-6 -36 342 0 341 0 0 30 c0 19
-11 42 -29 62 l-29 33 -264 1 c-144 1 -273 0 -284 -3z"/>
<path d="M2169 2252 c-160 -108 -259 -230 -308 -381 -38 -115 -42 -111 109
-111 l129 0 6 38 c28 176 90 312 191 421 l66 71 -69 0 c-62 0 -73 -3 -124 -38z"/>
<path d="M2363 2238 c-62 -64 -114 -145 -147 -229 -28 -71 -56 -180 -56 -221
l0 -28 129 0 130 0 6 58 c18 164 51 300 96 401 16 35 29 65 29 67 0 2 -31 4
-68 4 l-68 0 -51 -52z"/>
<path d="M2576 2235 c-48 -101 -96 -318 -96 -432 l0 -43 130 0 130 0 0 265 0
265 -69 0 -69 0 -26 -55z"/>
<path d="M2800 2025 l0 -265 131 0 132 0 -6 90 c-9 118 -38 250 -79 352 l-33
83 -72 3 -73 3 0 -266z"/>
<path d="M3000 2284 c0 -3 15 -48 34 -98 36 -96 70 -244 81 -358 l7 -68 129 0
129 0 0 33 c0 58 -39 189 -81 274 -26 53 -64 108 -106 153 l-65 70 -64 0 c-35
0 -64 -3 -64 -6z"/>
<path d="M3236 2228 c33 -35 74 -86 92 -114 42 -66 86 -190 102 -281 l12 -73
129 0 129 0 0 28 c-1 41 -41 151 -80 216 -46 78 -149 182 -235 239 -66 45 -73
47 -139 47 l-69 0 59 -62z"/>
<path d="M1773 1628 c3 -46 9 -98 13 -116 l7 -32 980 2 981 3 7 40 c3 22 9 73
13 113 l6 72 -1006 0 -1007 0 6 -82z"/>
</g>
</svg>
